<svg width="90" height="86" viewBox="0 0 90 86" fill="none" xmlns="http://www.w3.org/2000/svg">
    <mask id="mask0_420_1870" style="mask-type:alpha" maskUnits="userSpaceOnUse" x="0" y="0" width="223" height="86">
        <g clip-path="url(#clip0_420_1870)">
            <g mask="url(#mask1_420_1870)">
                <g mask="url(#mask2_420_1870)">
                    <path
                        d="M21.7397 13.4111C11.3606 19.436 4.38281 30.664 4.38281 43.5297C17.2485 43.5297 28.4766 36.5519 34.5014 26.1728C39.2829 17.9352 29.9773 8.63512 21.7452 13.4111"
                        fill="#3358A5" />
                    <path
                        d="M69.2983 26.0913C63.2789 15.7122 52.0454 8.73438 39.1797 8.73438C39.1797 21.6001 46.1575 32.8281 56.5366 38.853C64.7741 43.6345 74.0743 34.3289 69.2983 26.0913Z"
                        fill="#3358A5" />
                    <path
                        d="M9.06056 60.9698C15.0799 71.3489 26.3135 78.3267 39.1792 78.3267C39.1792 65.461 32.2013 54.233 21.8222 48.2081C13.5847 43.4266 4.28454 52.7322 9.06605 60.9643"
                        fill="#3358A5" />
                    <path
                        d="M73.9742 43.5312C61.1085 43.5312 49.8749 50.5091 43.8556 60.8882C39.0741 69.1257 48.3797 78.4259 56.6118 73.6498C66.9909 67.6305 73.9687 56.397 73.9687 43.5312"
                        fill="#3358A5" />
                </g>
            </g>
        </g>
    </mask>
    <g mask="url(#mask0_420_1870)">
        <rect x="-41.626" y="-11.1562" width="315.664" height="105.799" fill="white" />
    </g>
    <defs>
        <clipPath id="clip0_420_1870">
            <rect width="222.005" height="84.9863" fill="white" transform="translate(0 0.984375)" />
        </clipPath>
    </defs>
</svg>
