<svg width="7" height="13" viewBox="0 0 7 13" fill="none" xmlns="http://www.w3.org/2000/svg">
<path d="M1.53122 0.967449L6.53122 5.96745C6.60114 6.03713 6.65662 6.11992 6.69447 6.21108C6.73233 6.30225 6.75181 6.39999 6.75181 6.4987C6.75181 6.59741 6.73233 6.69515 6.69447 6.78631C6.65662 6.87748 6.60114 6.96027 6.53122 7.02995L1.53122 12.0299C1.39033 12.1708 1.19923 12.25 0.999973 12.25C0.800715 12.25 0.609619 12.1708 0.468723 12.0299C0.327827 11.8891 0.248672 11.698 0.248672 11.4987C0.248672 11.2994 0.327827 11.1083 0.468723 10.9674L4.9381 6.49807L0.468098 2.0287C0.327202 1.8878 0.248047 1.69671 0.248047 1.49745C0.248047 1.29819 0.327202 1.1071 0.468098 0.9662C0.608995 0.825304 0.800091 0.746147 0.999348 0.746147C1.19861 0.746147 1.3897 0.825304 1.5306 0.9662L1.53122 0.967449Z" fill="#565656"/>
</svg>
