<svg width="40" height="41" viewBox="0 0 40 41" fill="none" xmlns="http://www.w3.org/2000/svg">
    <path
        d="M10.5337 3.16657C4.54953 6.64026 0.526367 13.1139 0.526367 20.5318C7.94426 20.5318 14.4179 16.5087 17.8916 10.5245C20.6485 5.77499 15.2832 0.412887 10.5369 3.16657"
        fill="#3358A5" />
    <path
        d="M37.9541 10.4781C34.4836 4.49386 28.0068 0.470703 20.5889 0.470703C20.5889 7.8886 24.612 14.3623 30.5962 17.836C35.3457 20.5928 40.7078 15.2275 37.9541 10.4781Z"
        fill="#3358A5" />
    <path
        d="M3.22348 30.5862C6.694 36.5704 13.1709 40.5936 20.5888 40.5936C20.5888 33.1757 16.5656 26.702 10.5814 23.2283C5.83191 20.4715 0.469794 25.8367 3.22664 30.5831"
        fill="#3358A5" />
    <path
        d="M40.6502 20.5332C33.2323 20.5332 26.7555 24.5564 23.285 30.5406C20.5281 35.29 25.8934 40.6522 30.6397 37.8985C36.6239 34.4279 40.6471 27.9511 40.6471 20.5332"
        fill="#3358A5" />
</svg>
